<?xml version="1.0" encoding="utf-8"?>
<!DOCTYPE svg PUBLIC "-//W3C//DTD SVG 1.1//EN" "http://www.w3.org/Graphics/SVG/1.1/DTD/svg11.dtd">
<svg style="width:308px;height:308px;" version="1.1" id="图形" xmlns="http://www.w3.org/2000/svg" xmlns:xlink="http://www.w3.org/1999/xlink" x="0px" y="0px" width="1024px" height="1024px" viewBox="0 0 1024 1024" enable-background="new 0 0 1024 1024" xml:space="preserve">
  <path class="svgpath" data-index="path_0" fill="#272636" d="M623.616 501.632l98.752 0 0 98.752-98.752 0 0-98.752Z" />
<path class="svgpath" data-index="path_1" fill="#272636" d="M460.864 501.632l98.688 0 0 98.752-98.688 0 0-98.752Z" />
<path class="svgpath" data-index="path_2" fill="#272636" d="M297.984 501.632l98.688 0 0 98.752-98.688 0 0-98.752Z" />
<path class="svgpath" data-index="path_3" fill="#272636" d="M460.864 646.912l98.688 0 0 98.688-98.688 0 0-98.688Z" />
<path class="svgpath" data-index="path_4" fill="#272636" d="M297.984 646.912l98.688 0 0 98.688-98.688 0 0-98.688Z" />
<path class="svgpath" data-index="path_5" fill="#272636" d="M801.408 230.848l-31.552 0-7.744 0-33.088 0L729.024 148.608 630.4 148.608l0 164.544C617.408 312.704 606.976 302.208 606.976 289.152l0-58.24L438.08 230.912 438.08 148.608 339.392 148.608l0 164.544C326.464 312.704 316.032 302.208 316.032 289.152l0-58.24L291.264 230.912 275.968 230.912 218.944 230.912C184.832 231.616 157.44 259.072 156.608 293.184l0 38.848 0 45.44 0.832 441.92c3.84 31.04 29.568 55.168 61.504 55.936l582.656 0c32-0.768 57.664-24.896 61.504-55.936l0.704-6.4L863.808 377.472 863.808 352.832 863.808 293.184C862.976 259.072 835.584 231.616 801.408 230.848zM797.12 805.696 223.232 805.696 223.232 441.536l573.888 0L797.12 805.696z" />

</svg>
