<?xml version="1.0" encoding="utf-8"?>
<!DOCTYPE svg PUBLIC "-//W3C//DTD SVG 1.1//EN" "http://www.w3.org/Graphics/SVG/1.1/DTD/svg11.dtd">
<svg style="width:308px;height:308px;" version="1.1" id="图形" xmlns="http://www.w3.org/2000/svg" xmlns:xlink="http://www.w3.org/1999/xlink" x="0px" y="0px" width="1024px" height="1024px" viewBox="0 0 1024 1024" enable-background="new 0 0 1024 1024" xml:space="preserve">
  <path class="svgpath" data-index="path_0" fill="#272636" d="M958.923866 830.404794c-0.00307-136.025023-78.109985-252.291027-188.562587-299.707966 53.494355-38.552038 88.750323-104.232946 88.750323-178.821735 0-101.833293-65.685002-187.05935-153.849994-209.222115-0.817622-0.213871-1.585101-0.100284-2.331092 0.210801-1.003863-0.100284-1.974981-0.332575-2.996241-0.332575-18.834974 0-34.105772 16.474206-34.105772 36.787858 0 18.348903 12.493545 33.428344 28.782533 36.202527 2.899026 1.27504 6.701632 2.246157 6.852058 2.303462 51.055816 18.688641 87.800695 70.751391 87.800695 132.136459 0 68.447928-45.711088 125.32738-106.000196 137.232524-0.085958 0.007163-0.157589 0.174985-0.242524 0.221034-20.055778 1.367137-35.984562 19.166525-35.984562 41.136909 0 22.301935 16.396435 40.365336 36.880979 41.247426 0.143263 0.074701 0.268106 0.314155 0.414439 0.325411C805.581432 583.445192 891.528919 694.837188 891.528919 830.411957c0 20.067035 15.089673 36.337603 33.69952 36.337603 18.156522 0 32.853245-15.524578 33.56035-34.920324 0.024559-0.189312 0.1361-0.338714 0.1361-0.528026 0-0.067538-0.021489-0.1361-0.021489-0.217964l0 0c0.010233-0.225127 0.021489-0.443092 0.021489-0.664126l0-0.007163 0 0L958.924889 830.404794 958.923866 830.404794zM555.11189 536.728194c63.881936-46.160319 105.960287-124.648928 105.960287-213.806527 0-142.066623-106.789165-257.242805-238.529605-257.242805-131.733277 0-238.529605 115.176183-238.529605 257.242805 0 89.164762 42.086537 167.646208 105.957217 213.806527C157.919682 593.560574 64.555272 732.642213 64.555272 895.329479c0 9.16166 0.481977 18.178011 1.131777 27.15036l0.060375 0c0 19.803022 14.881942 35.8413 33.246195 35.8413 18.352997 0 33.239032-16.039301 33.239032-35.8413 0-1.11438-0.210801-2.167363-0.306992-3.260254-0.639566-7.894807-1.189082-15.799848-1.189082-23.89113 0-173.802418 130.640386-314.687122 291.802926-314.687122 161.16561 0 291.810089 140.884704 291.810089 314.687122 0 8.387018-0.549515 16.635889-1.235131 24.815175-0.00307 0.428765-0.11461 0.814552-0.11461 1.242294 0 0.1361 0.038886 0.25685 0.038886 0.381693-0.021489 0.23536-0.014326 0.481977-0.038886 0.710175l0.110517 0c0.549515 19.273972 15.128559 34.756595 33.131585 34.756595 18.010189 0 32.589233-15.474436 33.138748-34.756595l0.071631 0c0.62524-8.973372 1.071402-17.998933 1.071402-27.136034C780.529873 732.642213 687.169555 593.560574 555.11189 536.728194L555.11189 536.728194zM422.542572 507.703137c-94.628194 0-171.338297-82.730213-171.338297-184.78147 0-102.047164 76.710103-184.7784 171.338297-184.7784s171.338297 82.730213 171.338297 184.7784C593.880869 424.971901 517.170766 507.703137 422.542572 507.703137L422.542572 507.703137zM422.542572 507.703137" />

</svg>
