<?xml version="1.0" encoding="utf-8"?>
<!DOCTYPE svg PUBLIC "-//W3C//DTD SVG 1.1//EN" "http://www.w3.org/Graphics/SVG/1.1/DTD/svg11.dtd">
<svg style="width:308px;height:308px;" version="1.1" id="图形" xmlns="http://www.w3.org/2000/svg" xmlns:xlink="http://www.w3.org/1999/xlink" x="0px" y="0px" width="1025px" height="1024px" viewBox="0 0 1025 1024" enable-background="new 0 0 1025 1024" xml:space="preserve">
  <path class="svgpath" data-index="path_0" fill="#272636" d="M972.8 561.048l-716.8 0c-25.25 0-51.2-26.062-51.2-51.125 0-25.113 25.95-51.125 51.2-51.125l716.8 0c25.251 0 51.2 26.062 51.2 51.125C1024 535.036 998.051 561.048 972.8 561.048zM972.8 203.173l-716.8 0c-25.25 0-51.2-26.012-51.2-51.125s25.95-51.125 51.2-51.125l716.8 0c25.251 0 51.2 26.012 51.2 51.125S998.051 203.173 972.8 203.173zM51.2 918.923c-25.25 0-51.2-26.061-51.2-51.124 0-25.114 25.951-51.125 51.2-51.125 25.25 0 51.2 26.011 51.2 51.125C102.4 892.862 76.45 918.923 51.2 918.923zM51.2 561.048c-25.25 0-51.2-26.012-51.2-51.125 0-25.063 25.951-51.125 51.2-51.125 25.25 0 51.2 26.011 51.2 51.125C102.4 534.986 76.45 561.048 51.2 561.048zM51.2 203.173c-25.25 0-51.2-26.012-51.2-51.125s25.951-51.125 51.2-51.125c25.25 0 51.2 26.012 51.2 51.125S76.45 203.173 51.2 203.173zM256 816.674l716.8 0c25.251 0 51.2 26.062 51.2 51.125 0 25.113-25.949 51.124-51.2 51.124l-716.8 0c-25.25 0-51.2-26.011-51.2-51.124C204.8 842.735 230.75 816.674 256 816.674z" />

</svg>
